<svg width="404" height="40" viewBox="0 0 404 40" xmlns="http://www.w3.org/2000/svg">
    <path d="M386.183 1.19058L376.261 12.1984L366.329 1.19058H348.773L367.373 20.0627L348.773 38.9243H366.329L376.261 27.9269L386.183 38.9243H403.739L385.138 20.0627L403.739 1.19058H386.183Z" />
    <path d="M346.715 1.19058H333.608V38.9243H346.715V1.19058Z" />
    <path d="M317.441 26.141L299.52 1.19058H280.125V38.9347H293.232V13.9843L311.154 38.9347H330.548V1.19058H317.441V26.141Z" />
    <path d="M241.065 20V19.6345C241.065 14.8303 242.736 10.705 252.48 10.705C262.225 10.705 264.125 14.8198 264.125 19.6345V20V20.3655C264.125 25.1697 262.454 29.2846 252.71 29.2846C242.966 29.2846 241.065 25.1697 241.065 20.3655V20ZM252.836 39.9896C273.786 39.9896 277.389 31.1332 277.389 20.7833V20V19.2063C277.389 8.86685 273.295 0 252.345 0C231.394 0 227.791 8.8564 227.791 19.2063V20V20.7937C227.791 31.1332 231.885 40 252.836 40" />
    <path d="M193.159 12.1984H206.789C209.201 12.1984 211.405 12.1984 211.405 15.4987C211.405 18.7989 209.201 18.7989 206.789 18.7989H193.159V12.1984ZM193.159 29.8068H205.525C208.178 33.7546 211.634 38.9243 211.499 38.9243H225.796L218.214 27.9895C222.569 25.7128 225.034 21.389 225.034 15.4987C225.034 6.53784 219.321 1.19058 209.943 1.19058H180.073V38.9243H193.18V29.8068H193.159Z" />
    <path d="M147.582 38.9347H160.689V12.1984H176.679V1.19058H131.603V12.1984H147.582V38.9347Z" />
    <path d="M128.345 1.19058H115.238V38.9243H128.345V1.19058Z" />
    <path d="M90.6946 39.9164C97.8277 39.9164 104.376 38.9243 112.021 34.6736V18.1305H92.1776V25.7128H101.535V27.9686C98.6528 29.1697 95.7181 29.9634 91.4779 29.9634C82.1515 29.9634 79.6867 25.9843 79.6867 20.4804C79.6867 14.9765 82.6737 11.1018 89.8591 11.1018C95.3003 11.1018 97.4726 13.2637 98.0575 14.8825H112.031C111.384 6.22452 102.705 0.0835266 89.7546 0.0835266C76.1254 0.0835266 66.0679 6.68405 66.0679 19.9478C66.0679 33.2115 76.1358 39.9164 90.705 39.9164" />
    <path d="M63.3525 1.19058H50.2454V38.9243H63.3525V1.19058Z" />
    <path d="M25.0131 27.8851H12.9922V12.1149H25.0131C29.0131 12.1149 33.8486 12.1149 33.8486 20C33.8486 27.8851 29.0131 27.8851 25.0131 27.8851ZM30.2768 1.07571H0V38.9347H30.2768C39.1645 38.9347 47.5196 33.0444 47.5196 20.0104C47.5196 6.9765 39.154 1.07571 30.2768 1.07571Z" />
</svg>
