<svg width="18" height="18" viewBox="0 0 18 18" fill="none" xmlns="http://www.w3.org/2000/svg">
<path d="M15.6667 6.50001V7.33334L17.3333 7.33334L17.3333 6.50001L15.6667 6.50001ZM16.5 1.50001L17.3333 1.50001C17.3333 1.03977 16.9602 0.666675 16.5 0.666675V1.50001ZM11.5 0.666675H10.6667V2.33334H11.5V0.666675ZM8.41074 8.41074L7.82149 9L9 10.1785L9.58926 9.58926L8.41074 8.41074ZM7.33333 2.33333C7.79357 2.33333 8.16667 1.96024 8.16667 1.5C8.16667 1.03976 7.79357 0.666667 7.33333 0.666667V2.33333ZM17.3333 10.6667C17.3333 10.2064 16.9602 9.83333 16.5 9.83333C16.0398 9.83333 15.6667 10.2064 15.6667 10.6667H17.3333ZM2.86502 16.2275L2.4867 16.97H2.4867L2.86502 16.2275ZM1.77248 15.135L2.51499 14.7567L2.51499 14.7566L1.77248 15.135ZM15.135 16.2275L14.7566 15.485L14.7566 15.485L15.135 16.2275ZM16.2275 15.135L15.485 14.7566L15.485 14.7566L16.2275 15.135ZM1.77248 2.86502L2.51499 3.24335V3.24335L1.77248 2.86502ZM2.86502 1.77248L3.24335 2.51499H3.24335L2.86502 1.77248ZM17.3333 6.50001L17.3333 1.50001L15.6666 1.50001L15.6667 6.50001L17.3333 6.50001ZM16.5 0.666675H11.5V2.33334H16.5V0.666675ZM15.9107 0.910753L8.41074 8.41074L9.58926 9.58926L17.0892 2.08926L15.9107 0.910753ZM12.5 15.6667H5.5V17.3333H12.5V15.6667ZM2.33333 12.5V5.5H0.666667V12.5H2.33333ZM7.33333 0.666667H5.5V2.33333H7.33333V0.666667ZM17.3333 12.5V10.6667H15.6667V12.5H17.3333ZM5.5 15.6667C4.78618 15.6667 4.30094 15.666 3.92586 15.6354C3.56052 15.6055 3.37368 15.5514 3.24335 15.485L2.4867 16.97C2.89114 17.1761 3.32173 17.2582 3.79014 17.2965C4.24883 17.334 4.81368 17.3333 5.5 17.3333V15.6667ZM0.666667 12.5C0.666667 13.1863 0.666019 13.7512 0.703495 14.2099C0.741766 14.6783 0.823903 15.1089 1.02998 15.5133L2.51499 14.7566C2.44858 14.6263 2.39448 14.4395 2.36463 14.0741C2.33398 13.6991 2.33333 13.2138 2.33333 12.5H0.666667ZM3.24335 15.485C2.92975 15.3252 2.67478 15.0703 2.51499 14.7567L1.02998 15.5133C1.34956 16.1405 1.85949 16.6504 2.4867 16.97L3.24335 15.485ZM12.5 17.3333C13.1863 17.3333 13.7512 17.334 14.2099 17.2965C14.6783 17.2582 15.1089 17.1761 15.5133 16.97L14.7566 15.485C14.6263 15.5514 14.4395 15.6055 14.0741 15.6354C13.6991 15.666 13.2138 15.6667 12.5 15.6667V17.3333ZM15.6667 12.5C15.6667 13.2138 15.666 13.6991 15.6354 14.0741C15.6055 14.4395 15.5514 14.6263 15.485 14.7566L16.97 15.5133C17.1761 15.1089 17.2582 14.6783 17.2965 14.2099C17.334 13.7512 17.3333 13.1863 17.3333 12.5H15.6667ZM15.5133 16.97C16.1405 16.6504 16.6504 16.1405 16.97 15.5133L15.485 14.7566C15.3252 15.0703 15.0703 15.3252 14.7566 15.485L15.5133 16.97ZM2.33333 5.5C2.33333 4.78618 2.33398 4.30094 2.36463 3.92586C2.39448 3.56052 2.44858 3.37368 2.51499 3.24335L1.02998 2.4867C0.823903 2.89114 0.741766 3.32173 0.703495 3.79014C0.666019 4.24883 0.666667 4.81368 0.666667 5.5H2.33333ZM5.5 0.666667C4.81369 0.666667 4.24883 0.666019 3.79014 0.703495C3.32173 0.741766 2.89114 0.823903 2.4867 1.02998L3.24335 2.51499C3.37368 2.44858 3.56052 2.39448 3.92586 2.36463C4.30094 2.33398 4.78618 2.33333 5.5 2.33333V0.666667ZM2.51499 3.24335C2.67478 2.92975 2.92975 2.67478 3.24335 2.51499L2.4867 1.02998C1.85949 1.34956 1.34956 1.85949 1.02998 2.4867L2.51499 3.24335Z" fill="white"/>
</svg>
